<?xml version="1.0" encoding="UTF-8" standalone="no"?>
<svg width="40px" height="36px" viewBox="0 0 63 57" version="1.1" xmlns="http://www.w3.org/2000/svg" xmlns:xlink="http://www.w3.org/1999/xlink" xmlns:sketch="http://www.bohemiancoding.com/sketch/ns">
    <!-- Generator: Sketch 3.5.1 (25234) - http://www.bohemiancoding.com/sketch -->
    <title>icon</title>
    <desc>Created with Sketch.</desc>
    <defs></defs>
    <g id="Page-1" stroke="none" stroke-width="1" fill="none" fill-rule="evenodd" sketch:type="MSPage">
        <g id="Social-Tables-Logo---High-Quality-(1)-2" sketch:type="MSLayerGroup">
            <g id="icon">
                <g id="Group-15" transform="translate(27.839771, 0.000000)" fill="#CB5599" sketch:type="MSShapeGroup">
                    <path d="M0.181367922,1.91711143 C0.181367922,1.18565471 0.763546669,0.593741272 1.48246782,0.593741272 L6.10673572,0.593741272 C6.82565687,0.593741272 7.40783562,1.18565471 7.40783562,1.91711143 L7.40783562,6.622011 C7.40783562,7.35263462 6.82565687,7.94538116 6.10673572,7.94538116 L1.48246782,7.94538116 C0.763546669,7.94538116 0.181367922,7.35263462 0.181367922,6.622011 L0.181367922,1.91711143" id="Fill-13"></path>
                </g>
                <g id="Group-18" transform="translate(27.204412, 56.868006)"></g>
                <g id="Group-21" transform="translate(5.505767, 47.287422)" fill="#CB5599" sketch:type="MSShapeGroup">
                    <path d="M4.21522618,0.461534194 C4.7228926,-0.0554007652 5.5466223,-0.0554007652 6.05428872,0.461534194 L9.32464304,3.78849593 C9.83271886,4.30584744 9.83271886,5.14352367 9.32464304,5.66004209 L6.05469813,8.98700383 C5.5466223,9.50393879 4.72330201,9.50393879 4.21522618,8.98700383 L0.945281276,5.66004209 C0.43720545,5.14310713 0.43720545,4.30543089 0.945281276,3.78849593 L4.21522618,0.461534194" id="Fill-19"></path>
                </g>
                <g id="Group-24" transform="translate(0.000000, 28.126255)" fill="#CB5599" sketch:type="MSShapeGroup">
                    <path d="M0,1.44458537 C0,0.713961741 0.582588156,0.120798661 1.30028108,0.120798661 L5.9253678,0.120798661 C6.64306073,0.120798661 7.22564888,0.713961741 7.22564888,1.44458537 L7.22564888,6.14948494 C7.22564888,6.88010856 6.64306073,7.47243855 5.9253678,7.47243855 L1.30028108,7.47243855 C0.582588156,7.47243855 0,6.88010856 0,6.14948494 L0,1.44458537" id="Fill-22"></path>
                </g>
                <g id="Group-27" transform="translate(55.679543, 27.873736)" fill="#CB5599" sketch:type="MSShapeGroup">
                    <path d="M0.0270209545,1.78208033 C0.0270209545,1.0514567 0.609199702,0.458293622 1.32771145,0.458293622 L5.95156994,0.458293622 C6.67049109,0.458293622 7.25266984,1.0514567 7.25266984,1.78208033 L7.25266984,6.4869799 C7.25266984,7.21760352 6.67049109,7.80993351 5.95156994,7.80993351 L1.32771145,7.80993351 C0.609199702,7.80993351 0.0270209545,7.21760352 0.0270209545,6.4869799 L0.0270209545,1.78208033" id="Fill-25"></path>
                </g>
                <g id="Group-30" transform="translate(6.959943, 7.497848)" fill="#CB5599" sketch:type="MSShapeGroup">
                    <path d="M0.487195998,6.14423147 C-0.0208798285,5.62729651 -0.0208798285,4.78962028 0.487195998,4.27268532 L3.75755031,0.94530703 C4.26521673,0.428788618 5.08894643,0.428788618 5.59702226,0.945723577 L8.86655776,4.27268532 C9.37463358,4.78920373 9.37463358,5.62729651 8.86655776,6.14381492 L5.59661285,9.47077666 C5.08853703,9.98771162 4.26521673,9.98771162 3.75755031,9.47119321 L0.487195998,6.14423147" id="Fill-28"></path>
                </g>
                <g id="Group-33" transform="translate(46.672558, 7.497848)" fill="#CB5599" sketch:type="MSShapeGroup">
                    <path d="M3.68795088,0.930311334 C4.1956173,0.413376375 5.01975641,0.413792922 5.52701342,0.930311334 L8.79695833,4.25685653 C9.30544356,4.77379149 9.30503416,5.61146772 8.79654892,6.12881923 L5.52701342,9.45536442 C5.01934701,9.97229938 4.1956173,9.97229938 3.68795088,9.45536442 L0.418005978,6.12881923 C-0.0900698484,5.61188427 -0.0900698484,4.77379149 0.418005978,4.25727308 L3.68795088,0.930311334" id="Fill-31"></path>
                </g>
                <g id="Group-36" transform="translate(12.282252, 13.130560)" fill="#CB5599" sketch:type="MSShapeGroup">
                    <path d="M19.1091372,0.0874748924 C8.57669661,0.0874748924 0.00859757644,8.80497274 0.00859757644,19.5206471 C0.00859757644,30.2367379 8.57669661,38.9542358 19.1091372,38.9542358 C21.4222946,38.9542358 23.6638056,38.5431038 25.7947764,37.7304204 C27.4475581,37.9957609 30.1746274,38.4352181 32.188098,38.7597083 L39.3212205,39.9093783 L38.233013,32.6452133 C37.9189968,30.5483152 37.4612782,27.4871105 37.2049885,25.7542745 C37.8723242,23.7535988 38.2092673,21.6637819 38.2092673,19.5206471 C38.2092673,8.80497274 29.6407589,0.0874748924 19.1091372,0.0874748924 L19.1091372,0.0874748924 Z M19.1091372,5.45843329 C26.7421474,5.45843329 32.9303554,11.7541263 32.9303554,19.5206471 C32.9303554,21.5204897 32.5201282,23.4228604 31.7803272,25.1452826 C31.7713202,25.1586121 33.0142841,33.4545643 33.0142841,33.4545643 C33.0142841,33.4545643 25.1450452,32.1861784 25.1217089,32.1861784 C23.304345,33.0813381 21.2638536,33.5832774 19.1091372,33.5832774 C11.4753081,33.5832774 5.28750951,27.2875844 5.28750951,19.5206471 C5.28750951,11.7541263 11.4753081,5.45843329 19.1091372,5.45843329 L19.1091372,5.45843329 Z" id="Fill-34"></path>
                </g>
            </g>
        </g>
    </g>
</svg>